HIERARCHY
ROOT Hips
{
	OFFSET 0 0 0
	CHANNELS 6 Xposition Yposition Zposition Xrotation Yrotation Zrotation
	JOINT RightHandThumb1
	{
		OFFSET -1.78 -1.1 1.54
		CHANNELS 3 Xrotation Yrotation Zrotation
		JOINT RightHandThumb2
		{
			OFFSET -3.15004 0 0
			CHANNELS 3 Xrotation Yrotation Zrotation
			JOINT RightHandThumb3
			{
				OFFSET -3.52369 0 0
				CHANNELS 3 Xrotation Yrotation Zrotation
				JOINT RightHandThumb4
				{
					OFFSET -2.58404 0 0
					CHANNELS 3 Xrotation Yrotation Zrotation
					End Site
					{
						OFFSET -0 0 0
					}
				}
			}
		}
	}
	JOINT RightHandIndex1
	{
		OFFSET -7.4073 0.785551 3.77204
		CHANNELS 3 Xrotation Yrotation Zrotation
		JOINT RightHandIndex2
		{
			OFFSET -4.08729 0 0
			CHANNELS 3 Xrotation Yrotation Zrotation
			JOINT RightHandIndex3
			{
				OFFSET -1.89986 0 0
				CHANNELS 3 Xrotation Yrotation Zrotation
				JOINT RightHandIndex4
				{
					OFFSET -1.78024 0 0
					CHANNELS 3 Xrotation Yrotation Zrotation
					End Site
					{
						OFFSET -0 0 0
					}
				}
			}
		}
	}
	JOINT RightHandMiddle1
	{
		OFFSET -8.35792 1.13445 0.717983
		CHANNELS 3 Xrotation Yrotation Zrotation
		JOINT RightHandMiddle2
		{
			OFFSET -4.6 0 0
			CHANNELS 3 Xrotation Yrotation Zrotation
			JOINT RightHandMiddle3
			{
				OFFSET -2.13026 0 0
				CHANNELS 3 Xrotation Yrotation Zrotation
				JOINT RightHandMiddle4
				{
					OFFSET -1.56219 0 0
					CHANNELS 3 Xrotation Yrotation Zrotation
					End Site
					{
						OFFSET -0 0 0
					}
				}
			}
		}
	}
	JOINT RightHandRing1
	{
		OFFSET -7.73062 0.64105 -2.07729
		CHANNELS 3 Xrotation Yrotation Zrotation
		JOINT RightHandRing2
		{
			OFFSET -4.33866 0 0
			CHANNELS 3 Xrotation Yrotation Zrotation
			JOINT RightHandRing3
			{
				OFFSET -2.22865 0 0
				CHANNELS 3 Xrotation Yrotation Zrotation
				JOINT RightHandRing4
				{
					OFFSET -1.63434 0 0
					CHANNELS 3 Xrotation Yrotation Zrotation
					End Site
					{
						OFFSET -0 0 0
					}
				}
			}
		}
	}
	JOINT RightHandPinky1
	{
		OFFSET -7.64414 -0.346801 -3.91753
		CHANNELS 3 Xrotation Yrotation Zrotation
		JOINT RightHandPinky2
		{
			OFFSET -2.756 0 0
			CHANNELS 3 Xrotation Yrotation Zrotation
			JOINT RightHandPinky3
			{
				OFFSET -2.1983 0 0
				CHANNELS 3 Xrotation Yrotation Zrotation
				JOINT RightHandPinky4
				{
					OFFSET -1.30207 0 0
					CHANNELS 3 Xrotation Yrotation Zrotation
					End Site
					{
						OFFSET -0 0 0
					}
				}
			}
		}
	}
}
MOTION
Frames: 14
Frame Time: 0.00833333
-17.23291931 26.72640076 18.64806824 -78.16503465 41.07415297 109.42201198 -38.17222694 32.76837607 32.82789702 0.00000003 11.0326624 -0.0000003 0.00000007 17.417828 -0.00000048 0 0 0 -5.62252483 7.08455133 -6.86300112 -0 0 5.6714865 -0 0 1.40356198 -0 0 0 4.17166257 -0.29687959 0.86258399 -0 0 -0.12843824 -0 0 -1.53952943 -0 0 0 5.55856476 -8.84676989 -2.18874437 -0 0 -0.36537755 -0 0 0.78554625 -0 0 0 4.46443323 -22.73879054 -3.65282238 -0 0 -0.10164941 -0 0 -1.65519092 -0 0 0
-17.23488922 26.72533264 18.65172577 -78.12454505 41.04584875 109.43438395 -38.17665108 32.77261046 32.81724878 0.00000003 11.0186725 -0.0000003 0.00000007 17.44427686 -0.00000048 -0 0 0 -5.60139691 7.09671147 -6.84668493 -0 0 5.67485129 -0 0 1.41674665 -0 0 0 4.18888567 -0.2776385 0.8496383 -0 0 -0.12990636 -0 0 -1.53655695 -0 0 0 5.57010918 -8.83358416 -2.19572575 -0 0 -0.34543723 -0 0 0.77441007 -0 0 0 4.47132595 -22.72588084 -3.65675016 -0 0 -0.10639776 -0 0 -1.65644155 -0 0 0
-17.23759613 26.720047 18.65423279 -78.12330621 41.01184985 109.45915501 -38.18397787 32.77503109 32.80890765 0.00000003 10.98394439 -0.0000003 0.00000007 17.47243807 -0.00000048 0 0 0 -5.58818793 7.08087204 -6.82918449 -0 0 5.82303387 -0 0 1.26821941 -0 0 0 4.20604132 -0.29282939 0.84054751 -0 0 -0.14599811 -0 0 -1.53052896 -0 0 0 5.5781623 -8.85341779 -2.19198303 -0 0 -0.33239163 -0 0 0.75639225 -0 0 0 4.48359724 -22.74448375 -3.65110205 -0 0 -0.11647442 -0 0 -1.65467552 -0 0 0
-17.23714905 26.71447144 18.6564209 -78.10933432 40.99843921 109.44231354 -38.20377987 32.77030384 32.81405379 0.00000003 10.96764046 -0.0000003 0.00000007 17.49816965 -0.00000048 0 0 0 -5.59526228 7.0826419 -6.79342811 -0 0 5.80546559 -0 0 1.27791996 -0 0 0 4.20934329 -0.29281374 0.84336994 -0 0 -0.15492426 -0 0 -1.53826535 -0 0 0 5.57555651 -8.85918384 -2.17505568 -0 0 -0.33800182 -0 0 0.7439487 -0 0 0 4.48943704 -22.74846775 -3.62444093 -0 0 -0.11860936 -0 0 -1.66907575 -0 0 0
-17.23771973 26.71146851 18.65848999 -78.09413266 41.00455741 109.44105576 -38.22469073 32.76453438 32.81371028 0.00000003 10.96484379 -0.0000003 0.00000007 17.52395796 -0.00000048 -0 0 -0 -5.61172528 7.09578606 -6.78614716 -0 0 5.81056368 -0 0 1.26200816 -0 0 0 4.19548127 -0.2819658 0.81950879 -0 0 -0.14518063 -0 0 -1.56622469 -0 0 0 5.55491429 -8.85706272 -2.18938991 -0 0 -0.29692434 -0 0 0.69056183 -0 0 0 4.46939877 -22.74648446 -3.630297 -0 0 -0.10944581 -0 0 -1.699487 -0 0 0
-17.2396637 26.71020813 18.66086121 -78.07605256 41.00161636 109.45523268 -38.2328029 32.76587909 32.80205604 0.00000003 10.95586835 -0.0000003 0.00000007 17.54583876 -0.00000049 -0 0 0 -5.6074348 7.10861323 -6.79739349 -0 0 5.82778132 -0 0 1.23830627 -0 0 0 4.19958742 -0.26797182 0.77804009 -0 0 -0.13468139 -0 0 -1.59016397 -0 0 0 5.55395759 -8.84982954 -2.22387604 -0 0 -0.25122114 -0 0 0.63660151 -0 0 0 4.4556144 -22.73760977 -3.66510166 -0 0 -0.10141807 -0 0 -1.72416307 -0 0 0
-17.24326324 26.70819092 18.66270447 -78.08342117 41.00469497 109.48917471 -38.23389725 32.77075547 32.777369 0.00000003 10.93271878 -0.0000003 0.00000008 17.57071559 -0.00000049 0 -0 -0 -5.60283774 7.11138287 -6.81025328 -0 0 5.76171977 -0 0 1.29636376 -0 0 0 4.20366015 -0.26955383 0.73874715 -0 0 -0.1278334 -0 0 -1.60653289 -0 0 0 5.5552191 -8.85550038 -2.25606174 -0 0 -0.22258624 -0 0 0.59692501 -0 0 0 4.4427013 -22.74359855 -3.7016222 -0 0 -0.09909773 -0 0 -1.73326137 -0 0 0
-17.24496613 26.70510864 18.66403503 -78.08844159 41.01047814 109.50684875 -38.23390607 32.77604259 32.75365274 0.00000003 10.90253805 -0.0000003 0.00000008 17.5959697 -0.00000049 -0 -0 0 -5.59811242 7.11947354 -6.80835934 -0 0 5.69060772 -0 0 1.35323922 -0 0 0 4.21168206 -0.2690249 0.71682726 -0 0 -0.12289573 -0 0 -1.61447075 -0 0 0 5.56332247 -8.86004981 -2.26890627 -0 0 -0.19616612 -0 0 0.56434814 -0 0 0 4.44299017 -22.75102709 -3.71514203 -0 0 -0.09290405 -0 0 -1.74522128 -0 0 0
-17.24563293 26.70236206 18.66520996 -78.08731996 41.02117925 109.50927265 -38.2356971 32.78020823 32.73515348 0.00000003 10.8728187 -0.00000029 0.00000008 17.61901604 -0.00000049 0 0 0 -5.5985053 7.1310327 -6.79569972 -0 0 5.63133459 -0 0 1.39259524 -0 0 0 4.21373763 -0.26385399 0.70923991 -0 0 -0.11525888 -0 0 -1.62106289 -0 0 0 5.56960948 -8.85980495 -2.2684268 -0 0 -0.1733915 -0 0 0.54321788 -0 0 0 4.44272264 -22.75528301 -3.71355763 -0 0 -0.08664461 -0 0 -1.75882621 -0 0 0
-17.24538422 26.69891357 18.66613922 -78.08552719 41.03861512 109.50252284 -38.24348412 32.78122348 32.72128295 0.00000003 10.84735575 -0.00000029 0.00000008 17.63785459 -0.00000049 -0 -0 0 -5.61015495 7.14233648 -6.77434343 -0 0 5.58571602 -0 0 1.41904357 -0 0 0 4.20662234 -0.25742415 0.71579815 -0 0 -0.10335131 -0 0 -1.63695557 -0 0 0 5.56922346 -8.85664156 -2.25737435 -0 0 -0.16345191 -0 0 0.53157863 -0 0 0 4.43593266 -22.7554693 -3.70036413 -0 0 -0.08361863 -0 0 -1.77037817 -0 0 0
-17.2448761 26.69617615 18.66706848 -78.083166 41.05623802 109.49562719 -38.25493395 32.78007767 32.70904666 0.00000003 10.82472092 -0.00000029 0.00000008 17.65718218 -0.00000049 0 0 0 -5.62291468 7.15103238 -6.75275235 -0 0 5.53377485 -0 0 1.45839204 -0 0 0 4.20027777 -0.25105478 0.72362878 -0 0 -0.09652261 -0 0 -1.64758419 -0 0 0 5.56771025 -8.854429 -2.2449875 -0 0 -0.15514217 -0 0 0.51933563 -0 0 0 4.42866197 -22.75430011 -3.68525353 -0 0 -0.07919724 -0 0 -1.78282211 -0 0 0
-17.24467316 26.69413452 18.66809235 -78.08020707 41.07404821 109.49346447 -38.26580676 32.77877656 32.69535434 0.00000003 10.79913218 -0.00000029 0.00000008 17.67710994 -0.00000049 -0 -0 0 -5.6271634 7.15747326 -6.73686082 -0 0 5.50608566 -0 0 1.47836415 -0 0 0 4.20206857 -0.24806167 0.72397571 -0 0 -0.09628329 -0 0 -1.65196949 -0 0 0 5.5685143 -8.85528588 -2.23913787 -0 0 -0.14680116 -0 0 0.5037254 -0 0 0 4.42984278 -22.75639128 -3.67660864 -0 0 -0.08292431 -0 0 -1.79626794 -0 0 0
-17.24409637 26.69294739 18.66920319 -78.07554603 41.09103419 109.48788803 -38.27370069 32.77897607 32.68382951 0.00000003 10.77301025 -0.00000029 0.00000008 17.69881862 -0.00000049 -0 -0 0 -5.6164156 7.16750449 -6.71804815 -0 0 5.46732717 -0 0 1.50665794 -0 0 0 4.21906352 -0.24596277 0.71691588 -0 0 -0.10253057 -0 0 -1.66136104 -0 0 0 5.58141032 -8.85660824 -2.23735056 -0 0 -0.13521941 -0 0 0.48243995 -0 0 0 4.4464195 -22.75882503 -3.67546419 -0 0 -0.09304298 -0 0 -1.81777443 -0 0 0
-17.24332733 26.692453 18.67050171 -78.06817895 41.11658595 109.4769089 -38.27625332 32.78229551 32.67275192 0.00000003 10.75114961 -0.00000029 0.00000008 17.71493506 -0.00000049 -0 0 -0 -5.59467977 7.18334843 -6.70352992 -0 0 5.44934349 -0 0 1.50937476 -0 0 0 4.24462869 -0.23567875 0.70192795 -0 0 -0.10384003 -0 0 -1.68465374 -0 0 0 5.60213983 -8.85319222 -2.24264959 -0 0 -0.12523236 -0 0 0.45879062 -0 0 0 4.4682127 -22.75755849 -3.68105516 -0 0 -0.09335223 -0 0 -1.84897787 -0 0 0
